<?xml version="1.0" encoding="UTF-8" standalone="no"?>
<!-- Created with Inkscape (http://www.inkscape.org/) -->

<svg
   width="300mm"
   height="300mm"
   viewBox="0 0 300 300"
   version="1.1"
   id="svg5"
   inkscape:version="1.2.1 (9c6d41e410, 2022-07-14)"
   sodipodi:docname="xy-axis-lab2-width-and-height-ratio-to-2r-is-2.svg"
   inkscape:export-filename="drawing.svg"
   inkscape:export-xdpi="96"
   inkscape:export-ydpi="96"
   xmlns:inkscape="http://www.inkscape.org/namespaces/inkscape"
   xmlns:sodipodi="http://sodipodi.sourceforge.net/DTD/sodipodi-0.dtd"
   xmlns="http://www.w3.org/2000/svg"
   xmlns:svg="http://www.w3.org/2000/svg">
  <sodipodi:namedview
     id="namedview7"
     pagecolor="#ffffff"
     bordercolor="#000000"
     borderopacity="0.25"
     inkscape:showpageshadow="2"
     inkscape:pageopacity="0.0"
     inkscape:pagecheckerboard="0"
     inkscape:deskcolor="#d1d1d1"
     inkscape:document-units="mm"
     showgrid="false"
     inkscape:zoom="0.32"
     inkscape:cx="667.1875"
     inkscape:cy="718.75"
     inkscape:window-width="1920"
     inkscape:window-height="1011"
     inkscape:window-x="0"
     inkscape:window-y="0"
     inkscape:window-maximized="1"
     inkscape:current-layer="layer1" />
  <defs
     id="defs2">
    <rect
       x="367.78568"
       y="183.96713"
       width="36.749691"
       height="42.656891"
       id="rect5799" />
    <rect
       x="367.78568"
       y="183.96713"
       width="36.749691"
       height="42.656891"
       id="rect5799-0" />
    <rect
       x="367.78568"
       y="183.96713"
       width="36.749691"
       height="42.656891"
       id="rect5799-3" />
    <rect
       x="367.78568"
       y="183.96713"
       width="36.749691"
       height="42.656891"
       id="rect5799-3-0" />
    <rect
       x="367.78568"
       y="183.96713"
       width="36.749691"
       height="42.656891"
       id="rect5799-3-2" />
    <rect
       x="367.78568"
       y="183.96713"
       width="36.749691"
       height="42.656891"
       id="rect5799-3-0-6" />
    <rect
       x="367.78568"
       y="183.96713"
       width="36.749691"
       height="42.656891"
       id="rect5799-3-0-7" />
    <rect
       x="367.78568"
       y="183.96713"
       width="36.749691"
       height="42.656891"
       id="rect5799-3-0-2" />
    <rect
       x="367.78568"
       y="183.96713"
       width="36.749691"
       height="42.656891"
       id="rect5799-3-23" />
    <rect
       x="367.78568"
       y="183.96713"
       width="36.749691"
       height="42.656891"
       id="rect5799-3-5" />
    <rect
       x="367.78568"
       y="183.96713"
       width="36.749691"
       height="42.656891"
       id="rect5799-3-0-22" />
    <rect
       x="367.78568"
       y="183.96713"
       width="36.749691"
       height="42.656891"
       id="rect5799-3-0-9" />
    <rect
       x="367.78568"
       y="183.96713"
       width="36.749691"
       height="42.656891"
       id="rect5799-3-0-3" />
  </defs>
  <rect
     style="fill:#ffbfbf;fill-opacity:1;stroke-width:0.34678"
     id="rect3792"
     width="37.984432"
     height="75.165909"
     x="112.38049"
     y="-150.35376"
     transform="rotate(90)" />
  <g
     inkscape:label="Layer 1"
     inkscape:groupmode="layer"
     id="layer1">
    <path
       style="fill:#ffbfbf;fill-opacity:1;stroke-width:0.361468"
       d="m 226.42481,150.28858 -75.90658,-75.799711 -0.0107,75.828681 z"
       id="path5671" />
    <path
       style="fill:#ffbfbf;fill-opacity:1;stroke-width:0.373122"
       d="m 150.13428,188.61756 -2.84898,-0.31945 -3.36278,-0.30765 -5.65786,-1.39937 -4.12384,-1.64589 -5.52235,-3.19521 -3.72104,-2.86324 -3.40807,-3.35477 -3.30636,-4.66386 -2.55198,-4.33301 -1.88559,-5.03417 -1.24665,-4.73756 -0.54202,-4.07619 -0.029,-2.16208 38.14522,-0.11787 z"
       id="path5742" />
    <rect
       style="fill:#5e5e5e;fill-opacity:1;stroke-width:0.361273"
       id="rect238"
       width="283.00043"
       height="2.4320505"
       x="6.5545163"
       y="148.9864" />
    <path
       style="fill:#5e5e5e;fill-opacity:1;stroke-width:0.476651"
       d="m 299.8106,151.45444 c -0.24409,-0.10557 -0.62673,-0.56081 -0.7323,-0.3167 -0.10557,0.2441 0.95468,0.46261 0.7323,0.3167 -0.74169,-0.48666 -1.09356,-0.55742 -1.75461,-0.82185 -2.14974,-0.85988 1.28046,0.64024 -1.02631,-0.51314 -0.2779,-0.1389 -0.97037,-0.17763 -1.18868,-0.34211 -0.13421,-0.10107 -0.33877,-0.34822 -0.6321,-0.44568 -0.72657,-0.24139 -1.51448,-0.40053 -2.22368,-0.6842 -0.075,-0.0299 -0.0946,-0.1452 -0.17097,-0.17114 -0.10557,-0.0357 -0.22951,0.0382 -0.33409,0 -0.0384,-0.0144 0.0382,-0.10827 0,-0.12233 -0.10467,-0.0382 -0.22494,0.022 -0.33409,0 -0.52466,-0.10593 -1.03331,-0.3866 -1.53947,-0.51314 -0.16538,-0.0413 -0.3868,0.11656 -0.51114,0 -0.0386,-0.036 0.0477,-0.13602 0,-0.15835 -0.10197,-0.0477 -0.22878,0.0274 -0.33811,0 -0.61684,-0.15421 -1.27267,-0.53066 -1.87088,-0.6802 -0.11061,-0.0277 -0.23393,0.036 -0.34211,0 -0.0766,-0.0256 -0.0989,-0.13494 -0.17096,-0.17115 -0.40909,-0.20454 -0.78792,-0.23955 -1.19738,-0.34211 -0.82209,-0.20591 0.007,-0.0816 -0.50981,-0.34077 -0.52913,-0.2656 -1.18407,-0.25245 -1.70251,-0.51115 -0.80638,-0.40238 -1.79801,-0.81066 -2.64663,-1.17933 -0.0649,-0.0281 -10e-4,0.60009 0.17114,1.11787 0.59063,1.77188 -0.17564,-0.70735 0.17097,1.0263 0.0684,0.3422 0.2735,0.68415 0.34211,1.02631 0.0335,0.167 -0.0411,0.3458 0,0.51116 0.0193,0.0773 0.13331,0.0978 0.16898,0.16899 0.11043,0.22077 -0.0558,0.54211 0.16844,0.99224 0.25007,0.50213 -0.15565,1.85543 0,2.47624 0.031,0.12376 0.14016,0.21841 0.17096,0.34211 0.0573,0.22946 0.0973,2.78473 0,2.97337 -0.18831,0.36547 -0.16898,0.94484 -0.16898,1.03232"
       id="path358" />
    <rect
       style="fill:#5e5e5e;fill-opacity:1;stroke-width:0.361273"
       id="rect238-7"
       width="283.00043"
       height="2.4320505"
       x="-298.21423"
       y="149.04796"
       transform="rotate(-90)" />
    <path
       style="fill:#5e5e5e;fill-opacity:1;stroke-width:0.476651"
       d="m 151.45057,2.4786865 c -0.10557,0.2440878 -0.56081,0.6267304 -0.31671,0.7322994 0.24411,0.105569 0.46261,-0.9546789 0.31671,-0.7322994 -0.48666,0.7416853 -0.55743,1.0935579 -0.82185,1.7546073 -0.85989,2.1497344 0.64024,-1.2804656 -0.51315,1.0263074 -0.1389,0.277902 -0.17763,0.97037 -0.34211,1.188678 -0.10106,0.134213 -0.34821,0.338776 -0.44567,0.632099 -0.24139,0.726571 -0.40054,1.514483 -0.6842,2.223687 -0.0299,0.07494 -0.14521,0.09458 -0.17115,0.170964 -0.0357,0.105569 0.0382,0.229513 0,0.334092 -0.0144,0.03837 -0.10827,-0.03819 -0.12232,0 -0.0382,0.104668 0.022,0.2249368 0,0.3340908 -0.10593,0.524657 -0.38661,1.033315 -0.51315,1.53947 -0.0412,0.16538 0.11656,0.386804 0,0.511145 -0.036,0.03855 -0.13601,-0.04774 -0.15835,0 -0.0477,0.101966 0.0274,0.228775 0,0.338109 -0.15421,0.61684 -0.53065,1.272665 -0.6802,1.870878 -0.0277,0.110613 0.036,0.233927 0,0.342108 -0.0256,0.07657 -0.13493,0.0989 -0.17114,0.170964 -0.20455,0.409089 -0.23955,0.787912 -0.34211,1.19738 -0.20591,0.822087 -0.0816,-0.0072 -0.34078,0.509811 -0.26559,0.529125 -0.25244,1.184067 -0.51114,1.702508 -0.40239,0.806378 -0.81067,1.798006 -1.17933,2.646629 -0.0281,0.06485 0.60009,0.0014 1.11786,-0.171144 1.77188,-0.590628 -0.70735,0.175648 1.02631,-0.170964 0.3422,-0.06846 0.68414,-0.273507 1.02631,-0.342109 0.167,-0.03351 0.3458,0.04107 0.51116,0 0.0773,-0.01928 0.0978,-0.133312 0.16898,-0.168982 0.22078,-0.110433 0.54211,0.05585 0.99224,-0.168442 0.50214,-0.250069 1.85544,0.155651 2.47624,0 0.12377,-0.03099 0.21842,-0.140158 0.34211,-0.170964 0.22946,-0.05729 2.78474,-0.09728 2.97337,0 0.36548,0.188312 0.94484,0.168982 1.03233,0.168982"
       id="path358-5" />
    <rect
       style="fill:#5e5e5e;fill-opacity:1;stroke-width:0.455511"
       id="rect2838"
       width="2.5513341"
       height="20.725307"
       x="224.22899"
       y="140.10083" />
    <rect
       style="fill:#5e5e5e;fill-opacity:1;stroke-width:0.448299"
       id="rect2838-9"
       width="2.5513341"
       height="20.074203"
       x="186.81387"
       y="139.91125" />
    <rect
       style="fill:#5e5e5e;fill-opacity:1;stroke-width:0.462516"
       id="rect2838-3"
       width="2.5513341"
       height="21.367647"
       x="74.020569"
       y="139.26369" />
    <rect
       style="fill:#5e5e5e;fill-opacity:1;stroke-width:0.489818"
       id="rect2838-5"
       width="2.5513341"
       height="23.964695"
       x="74.084923"
       y="-162.17545"
       transform="rotate(90)" />
    <rect
       style="fill:#5e5e5e;fill-opacity:1;stroke-width:0.451129"
       id="rect2838-5-2"
       width="2.5513341"
       height="20.328451"
       x="186.67819"
       y="-160.30779"
       transform="rotate(90)" />
    <rect
       style="fill:#5e5e5e;fill-opacity:1;stroke-width:0.458525"
       id="rect2838-6"
       width="2.5513341"
       height="21.000511"
       x="224.28145"
       y="-160.45184"
       transform="rotate(90)" />
    <circle
       id="path5615"
       style="fill:#ffbfbf;stroke:#000000;stroke-width:0.476651"
       cx="39.485981"
       cy="64.374985"
       r="0.022783978" />
    <rect
       style="fill:#5e5e5e;fill-opacity:1;stroke-width:0.490314"
       id="rect2838-3-7"
       width="2.5513341"
       height="24.013342"
       x="111.55238"
       y="137.50121" />
    <text
       xml:space="preserve"
       transform="matrix(2.1523637,0,0,2.1523637,-633.88623,-396.70083)"
       id="text5797"
       style="white-space:pre;shape-inside:url(#rect5799);display:inline;fill:#5e5e5e;fill-opacity:1"><tspan
         x="367.78516"
         y="194.58398"
         id="tspan2144">Y</tspan></text>
    <text
       xml:space="preserve"
       transform="matrix(2.1523637,0,0,2.1523637,-516.11327,-278.09206)"
       id="text5797-9"
       style="white-space:pre;shape-inside:url(#rect5799-0);display:inline;fill:#5e5e5e;fill-opacity:1"><tspan
         x="367.78516"
         y="194.58398"
         id="tspan2146">X</tspan></text>
    <text
       xml:space="preserve"
       transform="matrix(2.1523637,0,0,2.1523637,-574.99324,-278.49353)"
       id="text5797-6"
       style="white-space:pre;shape-inside:url(#rect5799-3);display:inline;fill:#5e5e5e;fill-opacity:1"><tspan
         x="367.78516"
         y="194.58398"
         id="tspan2148">R</tspan></text>
    <text
       xml:space="preserve"
       transform="matrix(2.1523637,0,0,2.1523637,-628.09996,-335.15805)"
       id="text5797-6-7"
       style="white-space:pre;shape-inside:url(#rect5799-3-23);display:inline;fill:#5e5e5e;fill-opacity:1"><tspan
         x="367.78516"
         y="194.58398"
         id="tspan2150">R</tspan></text>
    <text
       xml:space="preserve"
       transform="matrix(2.1523637,0,0,2.1523637,-627.03575,-183.79254)"
       id="text5797-6-9"
       style="white-space:pre;shape-inside:url(#rect5799-3-5);display:inline;fill:#5e5e5e;fill-opacity:1"><tspan
         x="367.78516"
         y="194.58398"
         id="tspan2152">R</tspan></text>
    <rect
       style="white-space:pre;shape-inside:url(#rect5799);fill:#5e5e5e;fill-opacity:1;stroke-width:0.48673"
       id="rect2838-5-1"
       width="2.5513341"
       height="23.663528"
       x="111.44048"
       y="-162.2541"
       transform="rotate(90)"
       inkscape:label="rect2838-5-1" />
    <text
       xml:space="preserve"
       transform="matrix(1.1749991,0,0,1.1749991,-254.58666,-91.236031)"
       id="text5797-6-6"
       style="white-space:pre;shape-inside:url(#rect5799-3-0);display:inline;fill:#5e5e5e;fill-opacity:1"><tspan
         x="367.78516"
         y="194.58398"
         id="tspan2154">R/2</tspan></text>
    <text
       xml:space="preserve"
       transform="matrix(1.1749991,0,0,1.1749991,-265.00852,-111.68984)"
       id="text5797-6-6-8"
       style="white-space:pre;shape-inside:url(#rect5799-3-0-22);display:inline;fill:#5e5e5e;fill-opacity:1"><tspan
         x="367.78516"
         y="194.58398"
         id="tspan2156">R/2</tspan></text>
    <text
       xml:space="preserve"
       transform="matrix(1.1749991,0,0,1.1749991,-267.8023,-36.227172)"
       id="text5797-6-6-7"
       style="white-space:pre;shape-inside:url(#rect5799-3-0-9);display:inline;fill:#5e5e5e;fill-opacity:1"><tspan
         x="367.78516"
         y="194.58398"
         id="tspan2158">R/2</tspan></text>
    <text
       xml:space="preserve"
       transform="matrix(1.1749991,0,0,1.1749991,-330.50054,-93.510636)"
       id="text5797-6-6-6"
       style="white-space:pre;shape-inside:url(#rect5799-3-0-3);display:inline;fill:#5e5e5e;fill-opacity:1"><tspan
         x="367.78516"
         y="194.58398"
         id="tspan2160">R/2</tspan></text>
    <text
       xml:space="preserve"
       transform="matrix(2.1523637,0,0,2.1523637,-724.51317,-281.10822)"
       id="text5797-6-1"
       style="white-space:pre;shape-inside:url(#rect5799-3-2);display:inline;fill:#5e5e5e;fill-opacity:1"><tspan
         x="367.78516"
         y="194.58398"
         id="tspan2162">R</tspan></text>
  </g>
</svg>
